<svg width="0" height="0" class="hidden">


  <symbol xmlns="http://www.w3.org/2000/svg" xmlns:xlink="http://www.w3.org/1999/xlink" viewBox="0,0,256,256" id="twitter">
    <g fill="#ff5722" fill-rule="nonzero" stroke="none" stroke-width="1" stroke-linecap="butt" stroke-linejoin="miter" stroke-miterlimit="10" stroke-dasharray="" stroke-dashoffset="0" font-family="none" font-weight="none" font-size="none" text-anchor="none">
      <g transform="scale(3.55556,3.55556)">
        <path d="M63,19.645c-1.43,2.143 -3.24,4.026 -5.325,5.538c0.02,0.459 0.03,0.921 0.03,1.384c0,14.134 -10.728,30.433 -30.352,30.433c-6.025,0 -13.877,-2.116 -16.353,-4.805c0.836,0.1 1.686,0.15 2.546,0.15c4.999,0 9.6,-1.711 13.249,-4.58c-4.668,-0.086 -8.608,-3.18 -9.966,-7.43c2.124,0.334 4.818,-0.184 4.818,-0.184c0,0 -8.342,-1.436 -8.558,-10.622c2.412,1.402 4.832,1.338 4.832,1.338c0,0 -4.811,-2.97 -4.744,-8.901c0.039,-3.499 1.442,-5.38 1.442,-5.38c9.115,11.255 21.989,11.178 21.989,11.178c0,0 -0.276,-1.598 -0.276,-2.436c0,-5.906 4.775,-10.697 10.667,-10.697c3.068,0 5.84,1.3 7.786,3.379c2.432,-0.482 4.716,-1.372 6.776,-2.597c-0.931,3.737 -4.69,5.918 -4.69,5.918c0,0 3.219,-0.36 6.129,-1.686z"></path>
      </g>
    </g>
  </symbol>
  <symbol xmlns="http://www.w3.org/2000/svg" xmlns:xlink="http://www.w3.org/1999/xlink" viewBox="0,0,256,256" id="facebook">
    <g fill="#ff5722" fill-rule="nonzero" stroke="none" stroke-width="1" stroke-linecap="butt" stroke-linejoin="miter" stroke-miterlimit="10" stroke-dasharray="" stroke-dashoffset="0" font-family="none" font-weight="none" font-size="none" text-anchor="none">
      <g transform="scale(4,4)">
        <path d="M48,7h-32c-4.418,0 -8,3.582 -8,8v32c0,4.418 3.582,8 8,8h17v-17h-6v-7h6v-5c0,-7 4,-11 10,-11c3.133,0 5,1 5,1v6h-4c-2.86,0 -4,2.093 -4,4v5h7l-1,7h-6v17h8c4.418,0 8,-3.582 8,-8v-32c0,-4.418 -3.582,-8 -8,-8z"></path>
      </g>
    </g>
  </symbol>
  <symbol xmlns="http://www.w3.org/2000/svg" xmlns:xlink="http://www.w3.org/1999/xlink" viewBox="0,0,256,256" id="linkedin">
    <g fill="none" fill-rule="nonzero" stroke="none" stroke-width="1" stroke-linecap="butt" stroke-linejoin="miter" stroke-miterlimit="10" stroke-dasharray="" stroke-dashoffset="0" font-family="none" font-weight="none" font-size="none" text-anchor="none">
      <g transform="scale(5.33333,5.33333)">
        <path d="M42,37c0,2.762 -2.238,5 -5,5h-26c-2.761,0 -5,-2.238 -5,-5v-26c0,-2.762 2.239,-5 5,-5h26c2.762,0 5,2.238 5,5z" fill="#ff5722"></path>
        <path d="M12,19h5v17h-5zM14.485,17h-0.028c-1.492,0 -2.457,-1.112 -2.457,-2.501c0,-1.419 0.995,-2.499 2.514,-2.499c1.521,0 2.458,1.08 2.486,2.499c0,1.388 -0.965,2.501 -2.515,2.501zM36,36h-5v-9.099c0,-2.198 -1.225,-3.698 -3.192,-3.698c-1.501,0 -2.313,1.012 -2.707,1.99c-0.144,0.35 -0.101,1.318 -0.101,1.807v9h-5v-17h5v2.616c0.721,-1.116 1.85,-2.616 4.738,-2.616c3.578,0 6.261,2.25 6.261,7.274l0.001,9.726z" fill="#ffffff"></path>
      </g>
    </g>
  </symbol>


  <symbol fill="none" xmlns="http://www.w3.org/2000/svg" viewBox="0 0 27 22" id="email">
    <path d="M25.8125 0.601562H1.4375C0.918945 0.601562 0.5 1.02051 0.5 1.53906V20.2891C0.5 20.8076 0.918945 21.2266 1.4375 21.2266H25.8125C26.3311 21.2266 26.75 20.8076 26.75 20.2891V1.53906C26.75 1.02051 26.3311 0.601562 25.8125 0.601562ZM24.6406 3.84766V19.1172H2.60938V3.84766L1.80078 3.21777L2.95215 1.73828L4.20605 2.71387H23.0469L24.3008 1.73828L25.4521 3.21777L24.6406 3.84766ZM23.0469 2.71094L13.625 10.0352L4.20312 2.71094L2.94922 1.73535L1.79785 3.21484L2.60645 3.84473L12.6143 11.626C12.9021 11.8496 13.2561 11.9709 13.6206 11.9709C13.9851 11.9709 14.3391 11.8496 14.627 11.626L24.6406 3.84766L25.4492 3.21777L24.2979 1.73828L23.0469 2.71094Z" fill="#FF5722"></path>
  </symbol>
  <symbol version="1.1" xmlns="http://www.w3.org/2000/svg" xmlns:xlink="http://www.w3.org/1999/xlink" viewBox="0 0 18 18" id="phone">
    <title>phone</title>
    <desc>Created with Sketch.</desc>
    <g id="Icons" stroke="none" stroke-width="1" fill="none" fill-rule="evenodd">
      <g id="Rounded" transform="translate(-749.000000, -1263.000000)">
        <g id="Communication" transform="translate(100.000000, 1162.000000)">
          <g id="-Round-/-Communication-/-phone" transform="translate(646.000000, 98.000000)">
            <g>
              <polygon id="Path" points="0 0 24 0 24 24 0 24"></polygon>
              <path d="M19.23,15.26 L16.69,14.97 C16.08,14.9 15.48,15.11 15.05,15.54 L13.21,17.38 C10.38,15.94 8.06,13.63 6.62,10.79 L8.47,8.94 C8.9,8.51 9.11,7.91 9.04,7.3 L8.75,4.78 C8.63,3.77 7.78,3.01 6.76,3.01 L5.03,3.01 C3.9,3.01 2.96,3.95 3.03,5.08 C3.56,13.62 10.39,20.44 18.92,20.97 C20.05,21.04 20.99,20.1 20.99,18.97 L20.99,17.24 C21,16.23 20.24,15.38 19.23,15.26 Z" id="🔹Icon-Color" fill="#ff5722"></path>
            </g>
          </g>
        </g>
      </g>
    </g>
  </symbol>
  <symbol version="1.1" xmlns="http://www.w3.org/2000/svg" xmlns:xlink="http://www.w3.org/1999/xlink" viewBox="0 0 14 20" id="location">
    <title>location_on</title>
    <desc>Created with Sketch.</desc>
    <g id="Icons" stroke="none" stroke-width="1" fill="none" fill-rule="evenodd">
      <g id="Rounded" transform="translate(-377.000000, -1306.000000)">
        <g id="Communication" transform="translate(100.000000, 1162.000000)">
          <g id="-Round-/-Communication-/-location_on" transform="translate(272.000000, 142.000000)">
            <g>
              <polygon id="Path" points="0 0 24 0 24 24 0 24"></polygon>
              <path d="M12,2 C8.13,2 5,5.13 5,9 C5,13.17 9.42,18.92 11.24,21.11 C11.64,21.59 12.37,21.59 12.77,21.11 C14.58,18.92 19,13.17 19,9 C19,5.13 15.87,2 12,2 Z M12,11.5 C10.62,11.5 9.5,10.38 9.5,9 C9.5,7.62 10.62,6.5 12,6.5 C13.38,6.5 14.5,7.62 14.5,9 C14.5,10.38 13.38,11.5 12,11.5 Z" id="🔹Icon-Color" fill="#ff5722"></path>
            </g>
          </g>
        </g>
      </g>
    </g>
  </symbol>



  <symbol fill="none" xmlns="http://www.w3.org/2000/svg" viewBox="0 0 512 512" id="arrow">
    <path fill-rule="evenodd" clip-rule="evenodd" d="M474.089 115.583C480.947 121.155 481.99 131.232 476.417 138.09L268.417 394.09C265.379 397.829 260.818 400.001 255.999 400.001C251.181 400.001 246.62 397.829 243.582 394.09L35.5816 138.09C30.0094 131.232 31.0518 121.155 37.91 115.583C44.7682 110.01 54.845 111.053 60.4173 117.911L255.999 358.628L451.582 117.911C457.154 111.053 467.231 110.01 474.089 115.583Z" fill="#f0f8fa" id="id_101"></path>
  </symbol>
  <symbol fill="none" xmlns="http://www.w3.org/2000/svg" viewBox="0 0 512 512" id="arrow-black">
    <path fill-rule="evenodd" clip-rule="evenodd" d="M474.089 115.583C480.947 121.155 481.99 131.232 476.417 138.09L268.417 394.09C265.379 397.829 260.818 400.001 255.999 400.001C251.181 400.001 246.62 397.829 243.582 394.09L35.5816 138.09C30.0094 131.232 31.0518 121.155 37.91 115.583C44.7682 110.01 54.845 111.053 60.4173 117.911L255.999 358.628L451.582 117.911C457.154 111.053 467.231 110.01 474.089 115.583Z" fill="black"></path>
  </symbol>
</svg>